STARTFONT 2.1
COMMENT Exported by Fony v1.4.7
FONT Not Chicago
SIZE 16 96 96
FONTBOUNDINGBOX 17 15 0 -4
STARTPROPERTIES 6
COPYRIGHT "Created with Fony 1.4.7"
RESOLUTION_X 96
RESOLUTION_Y 96
FONT_ASCENT 12
FONT_DESCENT 4
DEFAULT_CHAR 0
ENDPROPERTIES
CHARS 256
STARTCHAR 000
ENCODING 0
SWIDTH 1152 0
DWIDTH 16 0
BBX 16 16 0 -4
BITMAP
0000
0000
0020
0010
0010
3FE0
0000
0EF8
0004
1BE4
0010
0090
0060
0000
0000
0000
ENDCHAR
STARTCHAR 001
ENCODING 1
SWIDTH 1152 0
DWIDTH 16 0
BBX 16 16 0 -4
BITMAP
0100
0380
3018
2388
0FE0
0FE0
5BB4
DFF6
5834
0C60
0FE0
2388
3018
0380
0100
0000
ENDCHAR
STARTCHAR 002
ENCODING 2
SWIDTH 1152 0
DWIDTH 16 0
BBX 16 16 0 -4
BITMAP
0000
0000
0000
0380
0440
0820
1830
2048
4004
4004
2008
1FF0
0000
0000
0000
0000
ENDCHAR
STARTCHAR 003
ENCODING 3
SWIDTH 1152 0
DWIDTH 16 0
BBX 16 16 0 -4
BITMAP
0000
0380
0440
0820
1830
2048
4004
4004
2008
1FF0
0000
2490
0920
1240
0000
0000
ENDCHAR
STARTCHAR 004
ENCODING 4
SWIDTH 1152 0
DWIDTH 16 0
BBX 16 16 0 -4
BITMAP
0000
0000
0FF0
1FF8
1008
1008
1008
1008
1008
1FF8
13C8
1FF8
0FF0
0C30
0000
0000
ENDCHAR
STARTCHAR 005
ENCODING 5
SWIDTH 1152 0
DWIDTH 16 0
BBX 16 16 0 -4
BITMAP
0000
07E0
0000
07E0
0C30
1818
1818
1818
1C38
1FF8
1BD8
0FF0
07E0
0C30
1008
0000
ENDCHAR
STARTCHAR 006
ENCODING 6
SWIDTH 1224 0
DWIDTH 17 0
BBX 17 16 0 -4
BITMAP
000000
000000
000000
000000
000000
000000
002000
784E00
545800
548E00
548300
550E00
010000
020000
000000
000000
ENDCHAR
STARTCHAR 007
ENCODING 7
SWIDTH 936 0
DWIDTH 13 0
BBX 13 16 0 -4
BITMAP
0000
0000
0000
0000
0000
0000
0000
79E0
5550
5550
5550
5550
0000
0000
0000
0000
ENDCHAR
STARTCHAR 008
ENCODING 8
SWIDTH 864 0
DWIDTH 12 0
BBX 12 16 0 -4
BITMAP
0000
0000
3000
49C0
4B20
3300
0300
0300
0320
01C0
0000
0000
0000
0000
0000
0000
ENDCHAR
STARTCHAR 009
ENCODING 9
SWIDTH 1080 0
DWIDTH 15 0
BBX 15 16 0 -4
BITMAP
0000
0000
0000
0000
0000
0000
0000
0000
0000
0000
0000
0000
0000
0000
0000
0000
ENDCHAR
STARTCHAR 010
ENCODING 10
SWIDTH 792 0
DWIDTH 11 0
BBX 11 16 0 -4
BITMAP
0000
0000
0000
0000
0000
0000
0000
0000
0000
0000
0000
0000
0000
0000
0000
0000
ENDCHAR
STARTCHAR 011
ENCODING 11
SWIDTH 1080 0
DWIDTH 15 0
BBX 15 16 0 -4
BITMAP
0000
0000
0C60
1EF0
37F8
2FF8
3FF8
3FF8
1FF0
0FE0
07C0
0380
0100
0000
0000
0000
ENDCHAR
STARTCHAR 012
ENCODING 12
SWIDTH 1008 0
DWIDTH 14 0
BBX 14 16 0 -4
BITMAP
0000
0000
0000
0000
0000
1CE0
35B0
3330
36B0
1CE0
0000
0000
0000
0000
0000
0000
ENDCHAR
STARTCHAR 013
ENCODING 13
SWIDTH 720 0
DWIDTH 10 0
BBX 10 16 0 -4
BITMAP
0000
0000
0000
0000
0000
0000
0000
0000
0000
0000
0000
0000
0000
0000
0000
0000
ENDCHAR
STARTCHAR 014
ENCODING 14
SWIDTH 1080 0
DWIDTH 15 0
BBX 15 16 0 -4
BITMAP
0000
0000
0000
0000
0000
0000
3FF8
2AA8
2EA8
3BF8
0000
0000
0000
0000
0000
0000
ENDCHAR
STARTCHAR 015
ENCODING 15
SWIDTH 792 0
DWIDTH 11 0
BBX 11 16 0 -4
BITMAP
0000
0000
0000
0000
0000
0000
4B80
5240
6380
5240
4A40
4B80
0000
0000
0000
0000
ENDCHAR
STARTCHAR 016
ENCODING 16
SWIDTH 1152 0
DWIDTH 16 0
BBX 16 16 0 -4
BITMAP
0100
0380
3018
2388
0FE0
0FE0
5FF4
DE36
5C14
0C18
1024
2002
2002
1004
0FF8
0000
ENDCHAR
STARTCHAR 017
ENCODING 17
SWIDTH 1080 0
DWIDTH 15 0
BBX 15 16 0 -4
BITMAP
0100
0380
07C0
0FE0
1FF0
3EF8
7D7C
1D10
1D70
1D30
1D70
1D70
0100
0380
0100
0000
ENDCHAR
STARTCHAR 018
ENCODING 18
SWIDTH 1080 0
DWIDTH 15 0
BBX 15 16 0 -4
BITMAP
0100
0380
07C0
0FE0
1FF0
3FF8
7EFC
1EF0
1D70
1D70
1BB0
17D0
0740
06C0
0380
0000
ENDCHAR
STARTCHAR 019
ENCODING 19
SWIDTH 720 0
DWIDTH 10 0
BBX 10 16 0 -4
BITMAP
0000
0000
0000
0000
0000
0000
0000
0000
0000
0000
0000
0000
0000
0000
0000
0000
ENDCHAR
STARTCHAR 020
ENCODING 20
SWIDTH 1152 0
DWIDTH 16 0
BBX 16 16 0 -4
BITMAP
0000
0000
0018
0018
00D8
00D8
06D8
06D8
36D8
36D8
36D8
36D8
0000
0000
0000
0000
ENDCHAR
STARTCHAR 021
ENCODING 21
SWIDTH 720 0
DWIDTH 10 0
BBX 10 16 0 -4
BITMAP
0000
0000
0000
6D80
6D80
0000
0000
0000
0000
0000
0000
0000
0000
0000
0000
0000
ENDCHAR
STARTCHAR 022
ENCODING 22
SWIDTH 720 0
DWIDTH 10 0
BBX 10 16 0 -4
BITMAP
0000
0000
0000
0D80
0D80
0000
0180
0180
0000
0000
0000
0000
0000
0000
0000
0000
ENDCHAR
STARTCHAR 023
ENCODING 23
SWIDTH 720 0
DWIDTH 10 0
BBX 10 16 0 -4
BITMAP
0000
0000
0000
0180
0180
0000
0180
0180
0000
0180
0180
0000
0000
0000
0000
0000
ENDCHAR
STARTCHAR 024
ENCODING 24
SWIDTH 720 0
DWIDTH 10 0
BBX 10 16 0 -4
BITMAP
0000
0000
0000
0000
0000
0000
0180
0180
0000
0D80
0D80
0000
0000
0000
0000
0000
ENDCHAR
STARTCHAR 025
ENCODING 25
SWIDTH 720 0
DWIDTH 10 0
BBX 10 16 0 -4
BITMAP
0000
0000
0000
0000
0000
0000
0000
0000
0000
6D80
6D80
0000
0000
0000
0000
0000
ENDCHAR
STARTCHAR 026
ENCODING 26
SWIDTH 720 0
DWIDTH 10 0
BBX 10 16 0 -4
BITMAP
0000
0000
0000
0000
0000
0000
6000
6000
0000
6C00
6C00
0000
0000
0000
0000
0000
ENDCHAR
STARTCHAR 027
ENCODING 27
SWIDTH 720 0
DWIDTH 10 0
BBX 10 16 0 -4
BITMAP
0000
0000
0000
6000
6000
0000
6000
6000
0000
6000
6000
0000
0000
0000
0000
0000
ENDCHAR
STARTCHAR 028
ENCODING 28
SWIDTH 720 0
DWIDTH 10 0
BBX 10 16 0 -4
BITMAP
0000
0000
0000
6C00
6C00
0000
6000
6000
0000
0000
0000
0000
0000
0000
0000
0000
ENDCHAR
STARTCHAR 029
ENCODING 29
SWIDTH 720 0
DWIDTH 10 0
BBX 10 16 0 -4
BITMAP
0000
0000
0000
0000
0000
0000
0000
0000
0000
0000
0000
0000
0000
0000
0000
0000
ENDCHAR
STARTCHAR 030
ENCODING 30
SWIDTH 720 0
DWIDTH 10 0
BBX 10 16 0 -4
BITMAP
0000
0000
0000
0000
0000
0000
0000
0000
0000
0000
0000
0000
0000
0000
0000
0000
ENDCHAR
STARTCHAR 031
ENCODING 31
SWIDTH 720 0
DWIDTH 10 0
BBX 10 16 0 -4
BITMAP
0000
0000
0000
0000
0000
0000
0000
0000
0000
0000
0000
0000
0000
0000
0000
0000
ENDCHAR
STARTCHAR 032
ENCODING 32
SWIDTH 360 0
DWIDTH 5 0
BBX 5 16 0 -4
BITMAP
00
00
00
00
00
00
00
00
00
00
00
00
00
00
00
00
ENDCHAR
STARTCHAR 033
ENCODING 33
SWIDTH 288 0
DWIDTH 4 0
BBX 4 16 0 -4
BITMAP
00
00
00
60
60
60
60
60
60
00
60
60
00
00
00
00
ENDCHAR
STARTCHAR 034
ENCODING 34
SWIDTH 360 0
DWIDTH 5 0
BBX 5 16 0 -4
BITMAP
00
00
00
50
50
50
00
00
00
00
00
00
00
00
00
00
ENDCHAR
STARTCHAR 035
ENCODING 35
SWIDTH 720 0
DWIDTH 10 0
BBX 10 16 0 -4
BITMAP
0000
0000
0900
0900
3F80
1200
1200
7F00
2400
2400
0000
0000
0000
0000
0000
0000
ENDCHAR
STARTCHAR 036
ENCODING 36
SWIDTH 504 0
DWIDTH 7 0
BBX 7 16 0 -4
BITMAP
00
10
38
54
70
70
38
1C
1C
54
38
10
00
00
00
00
ENDCHAR
STARTCHAR 037
ENCODING 37
SWIDTH 792 0
DWIDTH 11 0
BBX 11 16 0 -4
BITMAP
0000
0000
3700
4900
4A00
3200
0400
0400
0980
0A40
1240
1180
0000
0000
0000
0000
ENDCHAR
STARTCHAR 038
ENCODING 38
SWIDTH 720 0
DWIDTH 10 0
BBX 10 16 0 -4
BITMAP
0000
0000
0000
3C00
6600
6680
3080
6700
6600
6600
6600
3C00
0000
0000
0000
0000
ENDCHAR
STARTCHAR 039
ENCODING 39
SWIDTH 216 0
DWIDTH 3 0
BBX 3 16 0 -4
BITMAP
00
00
40
40
40
00
00
00
00
00
00
00
00
00
00
00
ENDCHAR
STARTCHAR 040
ENCODING 40
SWIDTH 360 0
DWIDTH 5 0
BBX 5 16 0 -4
BITMAP
00
00
30
60
60
60
60
60
60
60
60
60
30
00
00
00
ENDCHAR
STARTCHAR 041
ENCODING 41
SWIDTH 360 0
DWIDTH 5 0
BBX 5 16 0 -4
BITMAP
00
00
60
30
30
30
30
30
30
30
30
30
60
00
00
00
ENDCHAR
STARTCHAR 042
ENCODING 42
SWIDTH 504 0
DWIDTH 7 0
BBX 7 16 0 -4
BITMAP
00
00
00
00
00
10
54
38
54
10
00
00
00
00
00
00
ENDCHAR
STARTCHAR 043
ENCODING 43
SWIDTH 504 0
DWIDTH 7 0
BBX 7 16 0 -4
BITMAP
00
00
00
00
00
10
10
7C
10
10
00
00
00
00
00
00
ENDCHAR
STARTCHAR 044
ENCODING 44
SWIDTH 288 0
DWIDTH 4 0
BBX 4 16 0 -4
BITMAP
00
00
00
00
00
00
00
00
00
00
60
60
20
40
00
00
ENDCHAR
STARTCHAR 045
ENCODING 45
SWIDTH 504 0
DWIDTH 7 0
BBX 7 16 0 -4
BITMAP
00
00
00
00
00
00
00
7C
00
00
00
00
00
00
00
00
ENDCHAR
STARTCHAR 046
ENCODING 46
SWIDTH 288 0
DWIDTH 4 0
BBX 4 16 0 -4
BITMAP
00
00
00
00
00
00
00
00
00
00
60
60
00
00
00
00
ENDCHAR
STARTCHAR 047
ENCODING 47
SWIDTH 504 0
DWIDTH 7 0
BBX 7 16 0 -4
BITMAP
00
00
04
04
08
08
10
10
20
20
40
40
00
00
00
00
ENDCHAR
STARTCHAR 048
ENCODING 48
SWIDTH 576 0
DWIDTH 8 0
BBX 8 16 0 -4
BITMAP
00
00
00
3C
66
66
66
66
66
66
66
3C
00
00
00
00
ENDCHAR
STARTCHAR 049
ENCODING 49
SWIDTH 360 0
DWIDTH 5 0
BBX 5 16 0 -4
BITMAP
00
00
00
30
70
30
30
30
30
30
30
30
00
00
00
00
ENDCHAR
STARTCHAR 050
ENCODING 50
SWIDTH 576 0
DWIDTH 8 0
BBX 8 16 0 -4
BITMAP
00
00
00
3C
46
06
06
0C
18
30
60
7E
00
00
00
00
ENDCHAR
STARTCHAR 051
ENCODING 51
SWIDTH 576 0
DWIDTH 8 0
BBX 8 16 0 -4
BITMAP
00
00
00
7E
0C
18
3C
06
06
06
46
3C
00
00
00
00
ENDCHAR
STARTCHAR 052
ENCODING 52
SWIDTH 648 0
DWIDTH 9 0
BBX 9 16 0 -4
BITMAP
0000
0000
0000
0600
0E00
1600
2600
4600
7F00
0600
0600
0600
0000
0000
0000
0000
ENDCHAR
STARTCHAR 053
ENCODING 53
SWIDTH 576 0
DWIDTH 8 0
BBX 8 16 0 -4
BITMAP
00
00
00
7E
60
60
7C
06
06
06
46
3C
00
00
00
00
ENDCHAR
STARTCHAR 054
ENCODING 54
SWIDTH 576 0
DWIDTH 8 0
BBX 8 16 0 -4
BITMAP
00
00
00
1C
30
60
7C
66
66
66
66
3C
00
00
00
00
ENDCHAR
STARTCHAR 055
ENCODING 55
SWIDTH 576 0
DWIDTH 8 0
BBX 8 16 0 -4
BITMAP
00
00
00
7E
06
06
06
0C
18
18
18
18
00
00
00
00
ENDCHAR
STARTCHAR 056
ENCODING 56
SWIDTH 576 0
DWIDTH 8 0
BBX 8 16 0 -4
BITMAP
00
00
00
3C
66
66
66
3C
66
66
66
3C
00
00
00
00
ENDCHAR
STARTCHAR 057
ENCODING 57
SWIDTH 576 0
DWIDTH 8 0
BBX 8 16 0 -4
BITMAP
00
00
00
3C
66
66
66
66
3E
06
0C
38
00
00
00
00
ENDCHAR
STARTCHAR 058
ENCODING 58
SWIDTH 288 0
DWIDTH 4 0
BBX 4 16 0 -4
BITMAP
00
00
00
00
00
60
60
00
00
00
60
60
00
00
00
00
ENDCHAR
STARTCHAR 059
ENCODING 59
SWIDTH 288 0
DWIDTH 4 0
BBX 4 16 0 -4
BITMAP
00
00
00
00
00
60
60
00
00
00
60
60
20
40
00
00
ENDCHAR
STARTCHAR 060
ENCODING 60
SWIDTH 504 0
DWIDTH 7 0
BBX 7 16 0 -4
BITMAP
00
00
00
00
0C
18
30
60
30
18
0C
00
00
00
00
00
ENDCHAR
STARTCHAR 061
ENCODING 61
SWIDTH 576 0
DWIDTH 8 0
BBX 8 16 0 -4
BITMAP
00
00
00
00
00
00
7E
00
7E
00
00
00
00
00
00
00
ENDCHAR
STARTCHAR 062
ENCODING 62
SWIDTH 504 0
DWIDTH 7 0
BBX 7 16 0 -4
BITMAP
00
00
00
00
60
30
18
0C
18
30
60
00
00
00
00
00
ENDCHAR
STARTCHAR 063
ENCODING 63
SWIDTH 576 0
DWIDTH 8 0
BBX 8 16 0 -4
BITMAP
00
00
00
3C
46
06
0C
18
18
00
18
18
00
00
00
00
ENDCHAR
STARTCHAR 064
ENCODING 64
SWIDTH 792 0
DWIDTH 11 0
BBX 11 16 0 -4
BITMAP
0000
0000
0000
0000
1F00
2080
4E40
5240
5240
4D80
2000
1F00
0000
0000
0000
0000
ENDCHAR
STARTCHAR 065
ENCODING 65
SWIDTH 576 0
DWIDTH 8 0
BBX 8 16 0 -4
BITMAP
00
00
00
3C
66
66
66
7E
66
66
66
66
00
00
00
00
ENDCHAR
STARTCHAR 066
ENCODING 66
SWIDTH 576 0
DWIDTH 8 0
BBX 8 16 0 -4
BITMAP
00
00
00
7C
66
66
66
7C
66
66
66
7C
00
00
00
00
ENDCHAR
STARTCHAR 067
ENCODING 67
SWIDTH 576 0
DWIDTH 8 0
BBX 8 16 0 -4
BITMAP
00
00
00
3C
62
60
60
60
60
60
62
3C
00
00
00
00
ENDCHAR
STARTCHAR 068
ENCODING 68
SWIDTH 576 0
DWIDTH 8 0
BBX 8 16 0 -4
BITMAP
00
00
00
7C
66
66
66
66
66
66
66
7C
00
00
00
00
ENDCHAR
STARTCHAR 069
ENCODING 69
SWIDTH 504 0
DWIDTH 7 0
BBX 7 16 0 -4
BITMAP
00
00
00
7C
60
60
60
78
60
60
60
7C
00
00
00
00
ENDCHAR
STARTCHAR 070
ENCODING 70
SWIDTH 504 0
DWIDTH 7 0
BBX 7 16 0 -4
BITMAP
00
00
00
7C
60
60
60
78
60
60
60
60
00
00
00
00
ENDCHAR
STARTCHAR 071
ENCODING 71
SWIDTH 576 0
DWIDTH 8 0
BBX 8 16 0 -4
BITMAP
00
00
00
3C
62
60
60
6E
66
66
66
3C
00
00
00
00
ENDCHAR
STARTCHAR 072
ENCODING 72
SWIDTH 576 0
DWIDTH 8 0
BBX 8 16 0 -4
BITMAP
00
00
00
66
66
66
66
7E
66
66
66
66
00
00
00
00
ENDCHAR
STARTCHAR 073
ENCODING 73
SWIDTH 288 0
DWIDTH 4 0
BBX 4 16 0 -4
BITMAP
00
00
00
60
60
60
60
60
60
60
60
60
00
00
00
00
ENDCHAR
STARTCHAR 074
ENCODING 74
SWIDTH 576 0
DWIDTH 8 0
BBX 8 16 0 -4
BITMAP
00
00
00
06
06
06
06
06
66
66
66
3C
00
00
00
00
ENDCHAR
STARTCHAR 075
ENCODING 75
SWIDTH 648 0
DWIDTH 9 0
BBX 9 16 0 -4
BITMAP
0000
0000
0000
6300
6600
6C00
7800
7000
7800
6C00
6600
6300
0000
0000
0000
0000
ENDCHAR
STARTCHAR 076
ENCODING 76
SWIDTH 504 0
DWIDTH 7 0
BBX 7 16 0 -4
BITMAP
00
00
00
60
60
60
60
60
60
60
60
7C
00
00
00
00
ENDCHAR
STARTCHAR 077
ENCODING 77
SWIDTH 864 0
DWIDTH 12 0
BBX 12 16 0 -4
BITMAP
0000
0000
0000
4020
6060
70E0
79E0
5F60
4E60
4460
4060
4060
0000
0000
0000
0000
ENDCHAR
STARTCHAR 078
ENCODING 78
SWIDTH 648 0
DWIDTH 9 0
BBX 9 16 0 -4
BITMAP
0000
0000
0000
4100
6100
7100
7900
5D00
4F00
4700
4300
4100
0000
0000
0000
0000
ENDCHAR
STARTCHAR 079
ENCODING 79
SWIDTH 576 0
DWIDTH 8 0
BBX 8 16 0 -4
BITMAP
00
00
00
3C
66
66
66
66
66
66
66
3C
00
00
00
00
ENDCHAR
STARTCHAR 080
ENCODING 80
SWIDTH 576 0
DWIDTH 8 0
BBX 8 16 0 -4
BITMAP
00
00
00
7C
66
66
66
7C
60
60
60
60
00
00
00
00
ENDCHAR
STARTCHAR 081
ENCODING 81
SWIDTH 576 0
DWIDTH 8 0
BBX 8 16 0 -4
BITMAP
00
00
00
3C
66
66
66
66
66
66
66
3C
06
00
00
00
ENDCHAR
STARTCHAR 082
ENCODING 82
SWIDTH 576 0
DWIDTH 8 0
BBX 8 16 0 -4
BITMAP
00
00
00
7C
66
66
66
7C
66
66
66
66
00
00
00
00
ENDCHAR
STARTCHAR 083
ENCODING 83
SWIDTH 504 0
DWIDTH 7 0
BBX 7 16 0 -4
BITMAP
00
00
00
38
64
60
70
38
1C
0C
4C
38
00
00
00
00
ENDCHAR
STARTCHAR 084
ENCODING 84
SWIDTH 576 0
DWIDTH 8 0
BBX 8 16 0 -4
BITMAP
00
00
00
7E
18
18
18
18
18
18
18
18
00
00
00
00
ENDCHAR
STARTCHAR 085
ENCODING 85
SWIDTH 576 0
DWIDTH 8 0
BBX 8 16 0 -4
BITMAP
00
00
00
66
66
66
66
66
66
66
66
3C
00
00
00
00
ENDCHAR
STARTCHAR 086
ENCODING 86
SWIDTH 576 0
DWIDTH 8 0
BBX 8 16 0 -4
BITMAP
00
00
00
66
66
66
66
66
66
66
64
78
00
00
00
00
ENDCHAR
STARTCHAR 087
ENCODING 87
SWIDTH 864 0
DWIDTH 12 0
BBX 12 16 0 -4
BITMAP
0000
0000
0000
6660
6660
6660
6660
6660
6660
6660
6640
7F80
0000
0000
0000
0000
ENDCHAR
STARTCHAR 088
ENCODING 88
SWIDTH 576 0
DWIDTH 8 0
BBX 8 16 0 -4
BITMAP
00
00
00
66
66
66
66
3C
66
66
66
66
00
00
00
00
ENDCHAR
STARTCHAR 089
ENCODING 89
SWIDTH 576 0
DWIDTH 8 0
BBX 8 16 0 -4
BITMAP
00
00
00
66
66
66
66
3C
18
18
18
18
00
00
00
00
ENDCHAR
STARTCHAR 090
ENCODING 90
SWIDTH 576 0
DWIDTH 8 0
BBX 8 16 0 -4
BITMAP
00
00
00
7E
06
06
0C
18
30
60
60
7E
00
00
00
00
ENDCHAR
STARTCHAR 091
ENCODING 91
SWIDTH 360 0
DWIDTH 5 0
BBX 5 16 0 -4
BITMAP
00
00
70
60
60
60
60
60
60
60
60
60
70
00
00
00
ENDCHAR
STARTCHAR 092
ENCODING 92
SWIDTH 504 0
DWIDTH 7 0
BBX 7 16 0 -4
BITMAP
00
00
40
40
20
20
10
10
08
08
04
04
00
00
00
00
ENDCHAR
STARTCHAR 093
ENCODING 93
SWIDTH 360 0
DWIDTH 5 0
BBX 5 16 0 -4
BITMAP
00
00
70
30
30
30
30
30
30
30
30
30
70
00
00
00
ENDCHAR
STARTCHAR 094
ENCODING 94
SWIDTH 504 0
DWIDTH 7 0
BBX 7 16 0 -4
BITMAP
00
00
00
10
28
44
00
00
00
00
00
00
00
00
00
00
ENDCHAR
STARTCHAR 095
ENCODING 95
SWIDTH 576 0
DWIDTH 8 0
BBX 8 16 0 -4
BITMAP
00
00
00
00
00
00
00
00
00
00
00
FF
00
00
00
00
ENDCHAR
STARTCHAR 096
ENCODING 96
SWIDTH 360 0
DWIDTH 5 0
BBX 5 16 0 -4
BITMAP
00
00
40
20
10
00
00
00
00
00
00
00
00
00
00
00
ENDCHAR
STARTCHAR 097
ENCODING 97
SWIDTH 576 0
DWIDTH 8 0
BBX 8 16 0 -4
BITMAP
00
00
00
00
00
3C
46
3E
66
66
66
3E
00
00
00
00
ENDCHAR
STARTCHAR 098
ENCODING 98
SWIDTH 576 0
DWIDTH 8 0
BBX 8 16 0 -4
BITMAP
00
00
00
60
60
7C
66
66
66
66
66
7C
00
00
00
00
ENDCHAR
STARTCHAR 099
ENCODING 99
SWIDTH 504 0
DWIDTH 7 0
BBX 7 16 0 -4
BITMAP
00
00
00
00
00
38
64
60
60
60
64
38
00
00
00
00
ENDCHAR
STARTCHAR 100
ENCODING 100
SWIDTH 576 0
DWIDTH 8 0
BBX 8 16 0 -4
BITMAP
00
00
00
06
06
3E
66
66
66
66
66
3E
00
00
00
00
ENDCHAR
STARTCHAR 101
ENCODING 101
SWIDTH 576 0
DWIDTH 8 0
BBX 8 16 0 -4
BITMAP
00
00
00
00
00
3C
66
66
7E
60
62
3C
00
00
00
00
ENDCHAR
STARTCHAR 102
ENCODING 102
SWIDTH 360 0
DWIDTH 5 0
BBX 5 16 0 -4
BITMAP
00
00
00
38
60
F0
60
60
60
60
60
60
00
00
00
00
ENDCHAR
STARTCHAR 103
ENCODING 103
SWIDTH 576 0
DWIDTH 8 0
BBX 8 16 0 -4
BITMAP
00
00
00
00
00
3E
66
66
66
66
66
3E
06
46
3C
00
ENDCHAR
STARTCHAR 104
ENCODING 104
SWIDTH 576 0
DWIDTH 8 0
BBX 8 16 0 -4
BITMAP
00
00
00
60
60
7C
66
66
66
66
66
66
00
00
00
00
ENDCHAR
STARTCHAR 105
ENCODING 105
SWIDTH 288 0
DWIDTH 4 0
BBX 4 16 0 -4
BITMAP
00
00
00
60
00
60
60
60
60
60
60
60
00
00
00
00
ENDCHAR
STARTCHAR 106
ENCODING 106
SWIDTH 432 0
DWIDTH 6 0
BBX 6 16 0 -4
BITMAP
00
00
00
18
00
18
18
18
18
18
18
18
18
98
70
00
ENDCHAR
STARTCHAR 107
ENCODING 107
SWIDTH 576 0
DWIDTH 8 0
BBX 8 16 0 -4
BITMAP
00
00
00
60
60
66
6C
78
70
78
6C
66
00
00
00
00
ENDCHAR
STARTCHAR 108
ENCODING 108
SWIDTH 288 0
DWIDTH 4 0
BBX 4 16 0 -4
BITMAP
00
00
00
60
60
60
60
60
60
60
60
60
00
00
00
00
ENDCHAR
STARTCHAR 109
ENCODING 109
SWIDTH 864 0
DWIDTH 12 0
BBX 12 16 0 -4
BITMAP
0000
0000
0000
0000
0000
7FC0
6660
6660
6660
6660
6660
6660
0000
0000
0000
0000
ENDCHAR
STARTCHAR 110
ENCODING 110
SWIDTH 576 0
DWIDTH 8 0
BBX 8 16 0 -4
BITMAP
00
00
00
00
00
7C
66
66
66
66
66
66
00
00
00
00
ENDCHAR
STARTCHAR 111
ENCODING 111
SWIDTH 576 0
DWIDTH 8 0
BBX 8 16 0 -4
BITMAP
00
00
00
00
00
3C
66
66
66
66
66
3C
00
00
00
00
ENDCHAR
STARTCHAR 112
ENCODING 112
SWIDTH 576 0
DWIDTH 8 0
BBX 8 16 0 -4
BITMAP
00
00
00
00
00
7C
66
66
66
66
66
7C
60
60
00
00
ENDCHAR
STARTCHAR 113
ENCODING 113
SWIDTH 576 0
DWIDTH 8 0
BBX 8 16 0 -4
BITMAP
00
00
00
00
00
3E
66
66
66
66
66
3E
06
06
00
00
ENDCHAR
STARTCHAR 114
ENCODING 114
SWIDTH 432 0
DWIDTH 6 0
BBX 6 16 0 -4
BITMAP
00
00
00
00
00
6C
70
60
60
60
60
60
00
00
00
00
ENDCHAR
STARTCHAR 115
ENCODING 115
SWIDTH 504 0
DWIDTH 7 0
BBX 7 16 0 -4
BITMAP
00
00
00
00
00
38
64
70
38
1C
4C
38
00
00
00
00
ENDCHAR
STARTCHAR 116
ENCODING 116
SWIDTH 360 0
DWIDTH 5 0
BBX 5 16 0 -4
BITMAP
00
00
00
60
60
F0
60
60
60
60
60
30
00
00
00
00
ENDCHAR
STARTCHAR 117
ENCODING 117
SWIDTH 576 0
DWIDTH 8 0
BBX 8 16 0 -4
BITMAP
00
00
00
00
00
66
66
66
66
66
66
3E
00
00
00
00
ENDCHAR
STARTCHAR 118
ENCODING 118
SWIDTH 576 0
DWIDTH 8 0
BBX 8 16 0 -4
BITMAP
00
00
00
00
00
66
66
66
66
66
64
78
00
00
00
00
ENDCHAR
STARTCHAR 119
ENCODING 119
SWIDTH 864 0
DWIDTH 12 0
BBX 12 16 0 -4
BITMAP
0000
0000
0000
0000
0000
6660
6660
6660
6660
6660
6640
7F80
0000
0000
0000
0000
ENDCHAR
STARTCHAR 120
ENCODING 120
SWIDTH 576 0
DWIDTH 8 0
BBX 8 16 0 -4
BITMAP
00
00
00
00
00
66
66
66
3C
66
66
66
00
00
00
00
ENDCHAR
STARTCHAR 121
ENCODING 121
SWIDTH 576 0
DWIDTH 8 0
BBX 8 16 0 -4
BITMAP
00
00
00
00
00
66
66
66
66
66
66
3E
06
46
3C
00
ENDCHAR
STARTCHAR 122
ENCODING 122
SWIDTH 576 0
DWIDTH 8 0
BBX 8 16 0 -4
BITMAP
00
00
00
00
00
7E
06
0C
18
30
60
7E
00
00
00
00
ENDCHAR
STARTCHAR 123
ENCODING 123
SWIDTH 360 0
DWIDTH 5 0
BBX 5 16 0 -4
BITMAP
00
00
10
20
20
20
20
40
20
20
20
20
10
00
00
00
ENDCHAR
STARTCHAR 124
ENCODING 124
SWIDTH 216 0
DWIDTH 3 0
BBX 3 16 0 -4
BITMAP
00
00
40
40
40
40
40
40
40
40
40
40
40
00
00
00
ENDCHAR
STARTCHAR 125
ENCODING 125
SWIDTH 360 0
DWIDTH 5 0
BBX 5 16 0 -4
BITMAP
00
00
40
20
20
20
20
10
20
20
20
20
40
00
00
00
ENDCHAR
STARTCHAR 126
ENCODING 126
SWIDTH 576 0
DWIDTH 8 0
BBX 8 16 0 -4
BITMAP
00
00
00
00
00
00
32
4C
00
00
00
00
00
00
00
00
ENDCHAR
STARTCHAR 127
ENCODING 127
SWIDTH 576 0
DWIDTH 8 0
BBX 8 16 0 -4
BITMAP
00
00
00
00
00
08
04
7E
04
08
00
00
00
00
00
00
ENDCHAR
STARTCHAR 128
ENCODING 128
SWIDTH 720 0
DWIDTH 10 0
BBX 10 16 0 -4
BITMAP
0000
0000
0000
0000
0000
0000
0000
0000
0000
0000
0000
0000
0000
0000
0000
0000
ENDCHAR
STARTCHAR 129
ENCODING 129
SWIDTH 720 0
DWIDTH 10 0
BBX 10 16 0 -4
BITMAP
0000
0000
0000
0000
0000
0000
0000
0000
0000
0000
0000
0000
0000
0000
0000
0000
ENDCHAR
STARTCHAR 130
ENCODING 130
SWIDTH 720 0
DWIDTH 10 0
BBX 10 16 0 -4
BITMAP
0000
0000
0000
0000
0000
0000
0000
0000
0000
0000
0000
0000
0000
0000
0000
0000
ENDCHAR
STARTCHAR 131
ENCODING 131
SWIDTH 720 0
DWIDTH 10 0
BBX 10 16 0 -4
BITMAP
0000
0000
0000
0000
0000
0000
0000
0000
0000
0000
0000
0000
0000
0000
0000
0000
ENDCHAR
STARTCHAR 132
ENCODING 132
SWIDTH 720 0
DWIDTH 10 0
BBX 10 16 0 -4
BITMAP
0000
0000
0000
0000
0000
0000
0000
0000
0000
0000
0000
0000
0000
0000
0000
0000
ENDCHAR
STARTCHAR 133
ENCODING 133
SWIDTH 720 0
DWIDTH 10 0
BBX 10 16 0 -4
BITMAP
0000
0000
0000
0000
0000
0000
0000
0000
0000
0000
0000
0000
0000
0000
0000
0000
ENDCHAR
STARTCHAR 134
ENCODING 134
SWIDTH 720 0
DWIDTH 10 0
BBX 10 16 0 -4
BITMAP
0000
0000
0000
0000
0000
0000
0000
0000
0000
0000
0000
0000
0000
0000
0000
0000
ENDCHAR
STARTCHAR 135
ENCODING 135
SWIDTH 720 0
DWIDTH 10 0
BBX 10 16 0 -4
BITMAP
0000
0000
0000
0000
0000
0000
0000
0000
0000
0000
0000
0000
0000
0000
0000
0000
ENDCHAR
STARTCHAR 136
ENCODING 136
SWIDTH 720 0
DWIDTH 10 0
BBX 10 16 0 -4
BITMAP
0000
0000
0000
0000
0000
0000
0000
0000
0000
0000
0000
0000
0000
0000
0000
0000
ENDCHAR
STARTCHAR 137
ENCODING 137
SWIDTH 720 0
DWIDTH 10 0
BBX 10 16 0 -4
BITMAP
0000
0000
0000
0000
0000
0000
0000
0000
0000
0000
0000
0000
0000
0000
0000
0000
ENDCHAR
STARTCHAR 138
ENCODING 138
SWIDTH 720 0
DWIDTH 10 0
BBX 10 16 0 -4
BITMAP
0000
0000
0000
0000
0000
0000
0000
0000
0000
0000
0000
0000
0000
0000
0000
0000
ENDCHAR
STARTCHAR 139
ENCODING 139
SWIDTH 720 0
DWIDTH 10 0
BBX 10 16 0 -4
BITMAP
0000
0000
0000
0000
0000
0000
0000
0000
0000
0000
0000
0000
0000
0000
0000
0000
ENDCHAR
STARTCHAR 140
ENCODING 140
SWIDTH 720 0
DWIDTH 10 0
BBX 10 16 0 -4
BITMAP
0000
0000
0000
0000
0000
0000
0000
0000
0000
0000
0000
0000
0000
0000
0000
0000
ENDCHAR
STARTCHAR 141
ENCODING 141
SWIDTH 720 0
DWIDTH 10 0
BBX 10 16 0 -4
BITMAP
0000
0000
0000
0000
0000
0000
0000
0000
0000
0000
0000
0000
0000
0000
0000
0000
ENDCHAR
STARTCHAR 142
ENCODING 142
SWIDTH 720 0
DWIDTH 10 0
BBX 10 16 0 -4
BITMAP
0000
0000
0000
0000
0000
0000
0000
0000
0000
0000
0000
0000
0000
0000
0000
0000
ENDCHAR
STARTCHAR 143
ENCODING 143
SWIDTH 720 0
DWIDTH 10 0
BBX 10 16 0 -4
BITMAP
0000
0000
0000
0000
0000
0000
0000
0000
0000
0000
0000
0000
0000
0000
0000
0000
ENDCHAR
STARTCHAR 144
ENCODING 144
SWIDTH 720 0
DWIDTH 10 0
BBX 10 16 0 -4
BITMAP
0000
0000
0000
0000
0000
0000
0000
0000
0000
0000
0000
0000
0000
0000
0000
0000
ENDCHAR
STARTCHAR 145
ENCODING 145
SWIDTH 720 0
DWIDTH 10 0
BBX 10 16 0 -4
BITMAP
0000
0000
0000
0000
0000
0000
0000
0000
0000
0000
0000
0000
0000
0000
0000
0000
ENDCHAR
STARTCHAR 146
ENCODING 146
SWIDTH 720 0
DWIDTH 10 0
BBX 10 16 0 -4
BITMAP
0000
0000
0000
0000
0000
0000
0000
0000
0000
0000
0000
0000
0000
0000
0000
0000
ENDCHAR
STARTCHAR 147
ENCODING 147
SWIDTH 720 0
DWIDTH 10 0
BBX 10 16 0 -4
BITMAP
0000
0000
0000
0000
0000
0000
0000
0000
0000
0000
0000
0000
0000
0000
0000
0000
ENDCHAR
STARTCHAR 148
ENCODING 148
SWIDTH 720 0
DWIDTH 10 0
BBX 10 16 0 -4
BITMAP
0000
0000
0000
0000
0000
0000
0000
0000
0000
0000
0000
0000
0000
0000
0000
0000
ENDCHAR
STARTCHAR 149
ENCODING 149
SWIDTH 720 0
DWIDTH 10 0
BBX 10 16 0 -4
BITMAP
0000
0000
0000
0000
0000
0000
0000
0000
0000
0000
0000
0000
0000
0000
0000
0000
ENDCHAR
STARTCHAR 150
ENCODING 150
SWIDTH 720 0
DWIDTH 10 0
BBX 10 16 0 -4
BITMAP
0000
0000
0000
0000
0000
0000
0000
0000
0000
0000
0000
0000
0000
0000
0000
0000
ENDCHAR
STARTCHAR 151
ENCODING 151
SWIDTH 720 0
DWIDTH 10 0
BBX 10 16 0 -4
BITMAP
0000
0000
0000
0000
0000
0000
0000
0000
0000
0000
0000
0000
0000
0000
0000
0000
ENDCHAR
STARTCHAR 152
ENCODING 152
SWIDTH 720 0
DWIDTH 10 0
BBX 10 16 0 -4
BITMAP
0000
0000
0000
0000
0000
0000
0000
0000
0000
0000
0000
0000
0000
0000
0000
0000
ENDCHAR
STARTCHAR 153
ENCODING 153
SWIDTH 720 0
DWIDTH 10 0
BBX 10 16 0 -4
BITMAP
0000
0000
0000
0000
0000
0000
0000
0000
0000
0000
0000
0000
0000
0000
0000
0000
ENDCHAR
STARTCHAR 154
ENCODING 154
SWIDTH 720 0
DWIDTH 10 0
BBX 10 16 0 -4
BITMAP
0000
0000
0000
0000
0000
0000
0000
0000
0000
0000
0000
0000
0000
0000
0000
0000
ENDCHAR
STARTCHAR 155
ENCODING 155
SWIDTH 720 0
DWIDTH 10 0
BBX 10 16 0 -4
BITMAP
0000
0000
0000
0000
0000
0000
0000
0000
0000
0000
0000
0000
0000
0000
0000
0000
ENDCHAR
STARTCHAR 156
ENCODING 156
SWIDTH 720 0
DWIDTH 10 0
BBX 10 16 0 -4
BITMAP
0000
0000
0000
0000
0000
0000
0000
0000
0000
0000
0000
0000
0000
0000
0000
0000
ENDCHAR
STARTCHAR 157
ENCODING 157
SWIDTH 720 0
DWIDTH 10 0
BBX 10 16 0 -4
BITMAP
0000
0000
0000
0000
0000
0000
0000
0000
0000
0000
0000
0000
0000
0000
0000
0000
ENDCHAR
STARTCHAR 158
ENCODING 158
SWIDTH 720 0
DWIDTH 10 0
BBX 10 16 0 -4
BITMAP
0000
0000
0000
0000
0000
0000
0000
0000
0000
0000
0000
0000
0000
0000
0000
0000
ENDCHAR
STARTCHAR 159
ENCODING 159
SWIDTH 720 0
DWIDTH 10 0
BBX 10 16 0 -4
BITMAP
0000
0000
0000
0000
0000
0000
0000
0000
0000
0000
0000
0000
0000
0000
0000
0000
ENDCHAR
STARTCHAR 160
ENCODING 160
SWIDTH 720 0
DWIDTH 10 0
BBX 10 16 0 -4
BITMAP
0000
0000
0000
0000
0000
0000
0000
0000
0000
0000
0000
0000
0000
0000
0000
0000
ENDCHAR
STARTCHAR 161
ENCODING 161
SWIDTH 432 0
DWIDTH 6 0
BBX 6 16 0 -4
BITMAP
00
00
00
30
30
00
30
30
30
30
30
30
00
00
00
00
ENDCHAR
STARTCHAR 162
ENCODING 162
SWIDTH 504 0
DWIDTH 7 0
BBX 7 16 0 -4
BITMAP
00
00
10
38
54
50
50
54
38
10
00
00
00
00
00
00
ENDCHAR
STARTCHAR 163
ENCODING 163
SWIDTH 648 0
DWIDTH 9 0
BBX 9 16 0 -4
BITMAP
0000
0000
0000
1C00
3200
3000
3000
7800
3000
3000
3100
7E00
0000
0000
0000
0000
ENDCHAR
STARTCHAR 164
ENCODING 164
SWIDTH 576 0
DWIDTH 8 0
BBX 8 16 0 -4
BITMAP
00
00
00
00
42
3C
24
24
3C
42
00
00
00
00
00
00
ENDCHAR
STARTCHAR 165
ENCODING 165
SWIDTH 720 0
DWIDTH 10 0
BBX 10 16 0 -4
BITMAP
0000
0000
0000
6180
3300
7F80
0C00
7F80
0C00
0C00
0C00
0C00
0000
0000
0000
0000
ENDCHAR
STARTCHAR 166
ENCODING 166
SWIDTH 216 0
DWIDTH 3 0
BBX 3 16 0 -4
BITMAP
00
00
40
40
40
40
00
00
40
40
40
40
00
00
00
00
ENDCHAR
STARTCHAR 167
ENCODING 167
SWIDTH 504 0
DWIDTH 7 0
BBX 7 16 0 -4
BITMAP
00
00
38
44
60
30
58
4C
64
34
18
0C
44
38
00
00
ENDCHAR
STARTCHAR 168
ENCODING 168
SWIDTH 576 0
DWIDTH 8 0
BBX 8 16 0 -4
BITMAP
00
66
00
00
00
00
00
00
00
00
00
00
00
00
00
00
ENDCHAR
STARTCHAR 169
ENCODING 169
SWIDTH 720 0
DWIDTH 10 0
BBX 10 16 0 -4
BITMAP
0000
0000
0000
1E00
2100
4C80
5280
5080
5280
4C80
2100
1E00
0000
0000
0000
0000
ENDCHAR
STARTCHAR 170
ENCODING 170
SWIDTH 504 0
DWIDTH 7 0
BBX 7 16 0 -4
BITMAP
00
00
00
38
4C
3C
6C
6C
3C
00
7C
00
00
00
00
00
ENDCHAR
STARTCHAR 171
ENCODING 171
SWIDTH 648 0
DWIDTH 9 0
BBX 9 16 0 -4
BITMAP
0000
0000
0000
0000
0900
1200
2400
4800
2400
1200
0900
0000
0000
0000
0000
0000
ENDCHAR
STARTCHAR 172
ENCODING 172
SWIDTH 576 0
DWIDTH 8 0
BBX 8 16 0 -4
BITMAP
00
00
00
00
00
00
7E
02
02
00
00
00
00
00
00
00
ENDCHAR
STARTCHAR 173
ENCODING 173
SWIDTH 432 0
DWIDTH 6 0
BBX 6 16 0 -4
BITMAP
00
00
00
00
00
00
00
78
00
00
00
00
00
00
00
00
ENDCHAR
STARTCHAR 174
ENCODING 174
SWIDTH 720 0
DWIDTH 10 0
BBX 10 16 0 -4
BITMAP
0000
0000
0000
1E00
2100
5C80
5280
5C80
5280
5280
2100
1E00
0000
0000
0000
0000
ENDCHAR
STARTCHAR 175
ENCODING 175
SWIDTH 576 0
DWIDTH 8 0
BBX 8 16 0 -4
BITMAP
00
00
00
7E
00
00
00
00
00
00
00
00
00
00
00
00
ENDCHAR
STARTCHAR 176
ENCODING 176
SWIDTH 432 0
DWIDTH 6 0
BBX 6 16 0 -4
BITMAP
00
00
00
30
48
48
30
00
00
00
00
00
00
00
00
00
ENDCHAR
STARTCHAR 177
ENCODING 177
SWIDTH 504 0
DWIDTH 7 0
BBX 7 16 0 -4
BITMAP
00
00
00
00
00
10
10
7C
10
10
00
7C
00
00
00
00
ENDCHAR
STARTCHAR 178
ENCODING 178
SWIDTH 504 0
DWIDTH 7 0
BBX 7 16 0 -4
BITMAP
00
00
00
38
4C
0C
18
30
7C
00
00
00
00
00
00
00
ENDCHAR
STARTCHAR 179
ENCODING 179
SWIDTH 504 0
DWIDTH 7 0
BBX 7 16 0 -4
BITMAP
00
00
00
7C
0C
18
0C
4C
38
00
00
00
00
00
00
00
ENDCHAR
STARTCHAR 180
ENCODING 180
SWIDTH 360 0
DWIDTH 5 0
BBX 5 16 0 -4
BITMAP
00
00
10
20
40
00
00
00
00
00
00
00
00
00
00
00
ENDCHAR
STARTCHAR 181
ENCODING 181
SWIDTH 720 0
DWIDTH 10 0
BBX 10 16 0 -4
BITMAP
0000
0000
0000
0000
0000
3300
3300
3300
3300
3300
3300
3E80
2000
4000
0000
0000
ENDCHAR
STARTCHAR 182
ENCODING 182
SWIDTH 648 0
DWIDTH 9 0
BBX 9 16 0 -4
BITMAP
0000
0000
0000
3F00
6500
6500
6500
3D00
0500
0500
0500
0500
0000
0000
0000
0000
ENDCHAR
STARTCHAR 183
ENCODING 183
SWIDTH 288 0
DWIDTH 4 0
BBX 4 16 0 -4
BITMAP
00
00
00
00
00
00
00
60
60
00
00
00
00
00
00
00
ENDCHAR
STARTCHAR 184
ENCODING 184
SWIDTH 288 0
DWIDTH 4 0
BBX 4 16 0 -4
BITMAP
00
00
00
00
00
00
00
00
00
00
00
00
60
20
40
00
ENDCHAR
STARTCHAR 185
ENCODING 185
SWIDTH 360 0
DWIDTH 5 0
BBX 5 16 0 -4
BITMAP
00
00
00
30
70
30
30
30
30
00
00
00
00
00
00
00
ENDCHAR
STARTCHAR 186
ENCODING 186
SWIDTH 504 0
DWIDTH 7 0
BBX 7 16 0 -4
BITMAP
00
00
00
38
6C
6C
6C
6C
38
00
7C
00
00
00
00
00
ENDCHAR
STARTCHAR 187
ENCODING 187
SWIDTH 648 0
DWIDTH 9 0
BBX 9 16 0 -4
BITMAP
0000
0000
0000
0000
4800
2400
1200
0900
1200
2400
4800
0000
0000
0000
0000
0000
ENDCHAR
STARTCHAR 188
ENCODING 188
SWIDTH 936 0
DWIDTH 13 0
BBX 13 16 0 -4
BITMAP
0000
0000
0080
3080
7100
3100
3230
3270
34B0
04F8
0830
0830
0000
0000
0000
0000
ENDCHAR
STARTCHAR 189
ENCODING 189
SWIDTH 936 0
DWIDTH 13 0
BBX 13 16 0 -4
BITMAP
0000
0000
0080
3080
7100
3100
3270
3298
3418
0430
0860
08F8
0000
0000
0000
0000
ENDCHAR
STARTCHAR 190
ENCODING 190
SWIDTH 936 0
DWIDTH 13 0
BBX 13 16 0 -4
BITMAP
0000
0000
0040
F840
1880
3080
1930
9970
72B0
02F8
0430
0430
0000
0000
0000
0000
ENDCHAR
STARTCHAR 191
ENCODING 191
SWIDTH 432 0
DWIDTH 6 0
BBX 6 16 0 -4
BITMAP
00
00
00
30
30
00
30
30
60
C0
C4
78
00
00
00
00
ENDCHAR
STARTCHAR 192
ENCODING 192
SWIDTH 576 0
DWIDTH 8 0
BBX 8 16 0 -4
BITMAP
10
08
00
3C
66
66
66
7E
66
66
66
66
00
00
00
00
ENDCHAR
STARTCHAR 193
ENCODING 193
SWIDTH 576 0
DWIDTH 8 0
BBX 8 16 0 -4
BITMAP
08
10
00
3C
66
66
66
7E
66
66
66
66
00
00
00
00
ENDCHAR
STARTCHAR 194
ENCODING 194
SWIDTH 576 0
DWIDTH 8 0
BBX 8 16 0 -4
BITMAP
18
24
00
3C
66
66
66
7E
66
66
66
66
00
00
00
00
ENDCHAR
STARTCHAR 195
ENCODING 195
SWIDTH 576 0
DWIDTH 8 0
BBX 8 16 0 -4
BITMAP
32
4C
00
3C
66
66
66
7E
66
66
66
66
00
00
00
00
ENDCHAR
STARTCHAR 196
ENCODING 196
SWIDTH 576 0
DWIDTH 8 0
BBX 8 16 0 -4
BITMAP
00
24
00
3C
66
66
66
7E
66
66
66
66
00
00
00
00
ENDCHAR
STARTCHAR 197
ENCODING 197
SWIDTH 576 0
DWIDTH 8 0
BBX 8 16 0 -4
BITMAP
18
24
24
3C
66
66
66
7E
66
66
66
66
00
00
00
00
ENDCHAR
STARTCHAR 198
ENCODING 198
SWIDTH 792 0
DWIDTH 11 0
BBX 11 16 0 -4
BITMAP
0000
0000
0000
3FC0
6600
6600
6600
7F80
6600
6600
6600
67C0
0000
0000
0000
0000
ENDCHAR
STARTCHAR 199
ENCODING 199
SWIDTH 576 0
DWIDTH 8 0
BBX 8 16 0 -4
BITMAP
00
00
00
3C
62
60
60
60
60
60
62
3C
18
08
10
00
ENDCHAR
STARTCHAR 200
ENCODING 200
SWIDTH 504 0
DWIDTH 7 0
BBX 7 16 0 -4
BITMAP
10
08
00
7C
60
60
60
78
60
60
60
7C
00
00
00
00
ENDCHAR
STARTCHAR 201
ENCODING 201
SWIDTH 504 0
DWIDTH 7 0
BBX 7 16 0 -4
BITMAP
08
10
00
7C
60
60
60
78
60
60
60
7C
00
00
00
00
ENDCHAR
STARTCHAR 202
ENCODING 202
SWIDTH 576 0
DWIDTH 8 0
BBX 8 16 0 -4
BITMAP
18
24
00
7E
60
60
60
7C
60
60
60
7E
00
00
00
00
ENDCHAR
STARTCHAR 203
ENCODING 203
SWIDTH 504 0
DWIDTH 7 0
BBX 7 16 0 -4
BITMAP
00
28
00
7C
60
60
60
78
60
60
60
7C
00
00
00
00
ENDCHAR
STARTCHAR 204
ENCODING 204
SWIDTH 288 0
DWIDTH 4 0
BBX 4 16 0 -4
BITMAP
40
20
00
60
60
60
60
60
60
60
60
60
00
00
00
00
ENDCHAR
STARTCHAR 205
ENCODING 205
SWIDTH 288 0
DWIDTH 4 0
BBX 4 16 0 -4
BITMAP
20
40
00
60
60
60
60
60
60
60
60
60
00
00
00
00
ENDCHAR
STARTCHAR 206
ENCODING 206
SWIDTH 432 0
DWIDTH 6 0
BBX 6 16 0 -4
BITMAP
30
48
00
30
30
30
30
30
30
30
30
30
00
00
00
00
ENDCHAR
STARTCHAR 207
ENCODING 207
SWIDTH 432 0
DWIDTH 6 0
BBX 6 16 0 -4
BITMAP
00
48
00
30
30
30
30
30
30
30
30
30
00
00
00
00
ENDCHAR
STARTCHAR 208
ENCODING 208
SWIDTH 648 0
DWIDTH 9 0
BBX 9 16 0 -4
BITMAP
0000
0000
0000
3E00
3300
3300
3300
7B00
3300
3300
3300
3E00
0000
0000
0000
0000
ENDCHAR
STARTCHAR 209
ENCODING 209
SWIDTH 648 0
DWIDTH 9 0
BBX 9 16 0 -4
BITMAP
3200
4C00
0000
4100
6100
7100
7900
5D00
4F00
4700
4300
4100
0000
0000
0000
0000
ENDCHAR
STARTCHAR 210
ENCODING 210
SWIDTH 576 0
DWIDTH 8 0
BBX 8 16 0 -4
BITMAP
10
08
00
3C
66
66
66
66
66
66
66
3C
00
00
00
00
ENDCHAR
STARTCHAR 211
ENCODING 211
SWIDTH 576 0
DWIDTH 8 0
BBX 8 16 0 -4
BITMAP
08
10
00
3C
66
66
66
66
66
66
66
3C
00
00
00
00
ENDCHAR
STARTCHAR 212
ENCODING 212
SWIDTH 576 0
DWIDTH 8 0
BBX 8 16 0 -4
BITMAP
18
24
00
3C
66
66
66
66
66
66
66
3C
00
00
00
00
ENDCHAR
STARTCHAR 213
ENCODING 213
SWIDTH 576 0
DWIDTH 8 0
BBX 8 16 0 -4
BITMAP
32
4C
00
3C
66
66
66
66
66
66
66
3C
00
00
00
00
ENDCHAR
STARTCHAR 214
ENCODING 214
SWIDTH 576 0
DWIDTH 8 0
BBX 8 16 0 -4
BITMAP
00
24
00
3C
66
66
66
66
66
66
66
3C
00
00
00
00
ENDCHAR
STARTCHAR 215
ENCODING 215
SWIDTH 504 0
DWIDTH 7 0
BBX 7 16 0 -4
BITMAP
00
00
00
00
00
44
28
10
28
44
00
00
00
00
00
00
ENDCHAR
STARTCHAR 216
ENCODING 216
SWIDTH 792 0
DWIDTH 11 0
BBX 11 16 0 -4
BITMAP
0000
0000
0000
0F40
1980
1980
1B80
1D80
1980
1980
3980
4F00
0000
0000
0000
0000
ENDCHAR
STARTCHAR 217
ENCODING 217
SWIDTH 576 0
DWIDTH 8 0
BBX 8 16 0 -4
BITMAP
10
08
00
66
66
66
66
66
66
66
66
3C
00
00
00
00
ENDCHAR
STARTCHAR 218
ENCODING 218
SWIDTH 576 0
DWIDTH 8 0
BBX 8 16 0 -4
BITMAP
08
10
00
66
66
66
66
66
66
66
66
3C
00
00
00
00
ENDCHAR
STARTCHAR 219
ENCODING 219
SWIDTH 576 0
DWIDTH 8 0
BBX 8 16 0 -4
BITMAP
18
24
00
66
66
66
66
66
66
66
66
3C
00
00
00
00
ENDCHAR
STARTCHAR 220
ENCODING 220
SWIDTH 576 0
DWIDTH 8 0
BBX 8 16 0 -4
BITMAP
00
24
00
66
66
66
66
66
66
66
66
3C
00
00
00
00
ENDCHAR
STARTCHAR 221
ENCODING 221
SWIDTH 576 0
DWIDTH 8 0
BBX 8 16 0 -4
BITMAP
08
10
00
66
66
66
66
3C
18
18
18
18
00
00
00
00
ENDCHAR
STARTCHAR 222
ENCODING 222
SWIDTH 576 0
DWIDTH 8 0
BBX 8 16 0 -4
BITMAP
00
00
00
60
60
7C
66
66
66
7C
60
60
00
00
00
00
ENDCHAR
STARTCHAR 223
ENCODING 223
SWIDTH 648 0
DWIDTH 9 0
BBX 9 16 0 -4
BITMAP
0000
0000
0000
1E00
3300
3300
3600
3300
3300
3300
3300
7600
0000
0000
0000
0000
ENDCHAR
STARTCHAR 224
ENCODING 224
SWIDTH 576 0
DWIDTH 8 0
BBX 8 16 0 -4
BITMAP
00
00
10
08
00
3C
46
3E
66
66
66
3E
00
00
00
00
ENDCHAR
STARTCHAR 225
ENCODING 225
SWIDTH 576 0
DWIDTH 8 0
BBX 8 16 0 -4
BITMAP
00
00
08
10
00
3C
46
3E
66
66
66
3E
00
00
00
00
ENDCHAR
STARTCHAR 226
ENCODING 226
SWIDTH 576 0
DWIDTH 8 0
BBX 8 16 0 -4
BITMAP
00
00
18
24
00
3C
46
3E
66
66
66
3E
00
00
00
00
ENDCHAR
STARTCHAR 227
ENCODING 227
SWIDTH 576 0
DWIDTH 8 0
BBX 8 16 0 -4
BITMAP
00
00
32
4C
00
3C
46
3E
66
66
66
3E
00
00
00
00
ENDCHAR
STARTCHAR 228
ENCODING 228
SWIDTH 576 0
DWIDTH 8 0
BBX 8 16 0 -4
BITMAP
00
00
00
24
00
3C
46
3E
66
66
66
3E
00
00
00
00
ENDCHAR
STARTCHAR 229
ENCODING 229
SWIDTH 576 0
DWIDTH 8 0
BBX 8 16 0 -4
BITMAP
18
24
24
18
00
3C
46
3E
66
66
66
3E
00
00
00
00
ENDCHAR
STARTCHAR 230
ENCODING 230
SWIDTH 864 0
DWIDTH 12 0
BBX 12 16 0 -4
BITMAP
0000
0000
0000
0000
0000
3FC0
4660
3E60
67E0
6600
6620
3FC0
0000
0000
0000
0000
ENDCHAR
STARTCHAR 231
ENCODING 231
SWIDTH 576 0
DWIDTH 8 0
BBX 8 16 0 -4
BITMAP
00
00
00
00
00
3C
62
60
60
60
62
3C
18
08
10
00
ENDCHAR
STARTCHAR 232
ENCODING 232
SWIDTH 576 0
DWIDTH 8 0
BBX 8 16 0 -4
BITMAP
00
00
10
08
00
3C
66
66
7E
60
62
3C
00
00
00
00
ENDCHAR
STARTCHAR 233
ENCODING 233
SWIDTH 576 0
DWIDTH 8 0
BBX 8 16 0 -4
BITMAP
00
00
08
10
00
3C
66
66
7E
60
62
3C
00
00
00
00
ENDCHAR
STARTCHAR 234
ENCODING 234
SWIDTH 576 0
DWIDTH 8 0
BBX 8 16 0 -4
BITMAP
00
00
18
24
00
3C
66
66
7E
60
62
3C
00
00
00
00
ENDCHAR
STARTCHAR 235
ENCODING 235
SWIDTH 576 0
DWIDTH 8 0
BBX 8 16 0 -4
BITMAP
00
00
00
24
00
3C
66
66
7E
60
62
3C
00
00
00
00
ENDCHAR
STARTCHAR 236
ENCODING 236
SWIDTH 288 0
DWIDTH 4 0
BBX 4 16 0 -4
BITMAP
00
00
40
20
00
60
60
60
60
60
60
60
00
00
00
00
ENDCHAR
STARTCHAR 237
ENCODING 237
SWIDTH 288 0
DWIDTH 4 0
BBX 4 16 0 -4
BITMAP
00
00
20
40
00
60
60
60
60
60
60
60
00
00
00
00
ENDCHAR
STARTCHAR 238
ENCODING 238
SWIDTH 432 0
DWIDTH 6 0
BBX 6 16 0 -4
BITMAP
00
00
30
48
00
30
30
30
30
30
30
30
00
00
00
00
ENDCHAR
STARTCHAR 239
ENCODING 239
SWIDTH 432 0
DWIDTH 6 0
BBX 6 16 0 -4
BITMAP
00
00
00
48
00
30
30
30
30
30
30
30
00
00
00
00
ENDCHAR
STARTCHAR 240
ENCODING 240
SWIDTH 576 0
DWIDTH 8 0
BBX 8 16 0 -4
BITMAP
00
00
00
00
00
00
00
00
00
00
00
00
00
00
00
00
ENDCHAR
STARTCHAR 241
ENCODING 241
SWIDTH 576 0
DWIDTH 8 0
BBX 8 16 0 -4
BITMAP
00
00
32
4C
00
7C
66
66
66
66
66
66
00
00
00
00
ENDCHAR
STARTCHAR 242
ENCODING 242
SWIDTH 576 0
DWIDTH 8 0
BBX 8 16 0 -4
BITMAP
00
00
10
08
00
3C
66
66
66
66
66
3C
00
00
00
00
ENDCHAR
STARTCHAR 243
ENCODING 243
SWIDTH 576 0
DWIDTH 8 0
BBX 8 16 0 -4
BITMAP
00
00
08
10
00
3C
66
66
66
66
66
3C
00
00
00
00
ENDCHAR
STARTCHAR 244
ENCODING 244
SWIDTH 576 0
DWIDTH 8 0
BBX 8 16 0 -4
BITMAP
00
00
18
24
00
3C
66
66
66
66
66
3C
00
00
00
00
ENDCHAR
STARTCHAR 245
ENCODING 245
SWIDTH 576 0
DWIDTH 8 0
BBX 8 16 0 -4
BITMAP
00
00
32
4C
00
3C
66
66
66
66
66
3C
00
00
00
00
ENDCHAR
STARTCHAR 246
ENCODING 246
SWIDTH 576 0
DWIDTH 8 0
BBX 8 16 0 -4
BITMAP
00
00
00
24
00
3C
66
66
66
66
66
3C
00
00
00
00
ENDCHAR
STARTCHAR 247
ENCODING 247
SWIDTH 504 0
DWIDTH 7 0
BBX 7 16 0 -4
BITMAP
00
00
00
00
00
10
00
7C
00
10
00
00
00
00
00
00
ENDCHAR
STARTCHAR 248
ENCODING 248
SWIDTH 720 0
DWIDTH 10 0
BBX 10 16 0 -4
BITMAP
0000
0000
0000
0000
0000
1E80
3300
3300
3700
3B00
3300
5E00
0000
0000
0000
0000
ENDCHAR
STARTCHAR 249
ENCODING 249
SWIDTH 576 0
DWIDTH 8 0
BBX 8 16 0 -4
BITMAP
00
00
10
08
00
66
66
66
66
66
66
3E
00
00
00
00
ENDCHAR
STARTCHAR 250
ENCODING 250
SWIDTH 576 0
DWIDTH 8 0
BBX 8 16 0 -4
BITMAP
00
00
08
10
00
66
66
66
66
66
66
3E
00
00
00
00
ENDCHAR
STARTCHAR 251
ENCODING 251
SWIDTH 576 0
DWIDTH 8 0
BBX 8 16 0 -4
BITMAP
00
00
18
24
00
66
66
66
66
66
66
3E
00
00
00
00
ENDCHAR
STARTCHAR 252
ENCODING 252
SWIDTH 576 0
DWIDTH 8 0
BBX 8 16 0 -4
BITMAP
00
00
00
24
00
66
66
66
66
66
66
3E
00
00
00
00
ENDCHAR
STARTCHAR 253
ENCODING 253
SWIDTH 576 0
DWIDTH 8 0
BBX 8 16 0 -4
BITMAP
00
00
08
10
00
66
66
66
66
66
66
3E
06
46
3C
00
ENDCHAR
STARTCHAR 254
ENCODING 254
SWIDTH 576 0
DWIDTH 8 0
BBX 8 16 0 -4
BITMAP
00
00
00
60
60
7C
66
66
66
66
66
7C
60
60
00
00
ENDCHAR
STARTCHAR 255
ENCODING 255
SWIDTH 576 0
DWIDTH 8 0
BBX 8 16 0 -4
BITMAP
00
00
00
24
00
66
66
66
66
66
66
3E
06
46
3C
00
ENDCHAR
ENDFONT
